. 
  
http://www.torrenting.com/        :     Greatest Movie Tracker on The Net!!!
 
http://www.Torrenting.com          :     Once & For all ;)


               www . Torrenting . Com 

(((((((((((((= Enjoy No RAR releases =))))))))))))))))))))


...................................NFO:....................................

.[img]http://img228.imageshack.us/img228/6369/17ax5nri2m6.jpg[/img]

[color=blue][size=5][b]Rubber 2010 BDRip XVID AC3 HQ Hive-CM8[/b][/size][/color]


[b]Thx Hive

CM8 Doing It Right The First Time :D

Why download a touched up rip of a rip BRrip
Get the real deal BDRip
Enjoy

Source Bluray

look @imdb what this movie is about, its not a typical movie.
quote review: "better get high before watching"


Video: 720x400 @bitrate 1800 2pass
Audio: DTS to AC3 5.1 @448
Sample: yes included[/b]


[url]http://www.imdb.com/title/tt1612774/[/url]


General
Complete name                    : Rubber.2010.BDRip.XVID.AC3.HQ.Hive-CM8.avi
Format                           : AVI
Format/Info                      : Audio Video Interleave
File size                        : 1.25 GiB
Duration                         : 1h 18mn
Overall bit rate                 : 2 257 Kbps
Writing application              : Nandub v1.0rc2
Writing library                  : Nandub build 1853/release

Video
ID                               : 0
Format                           : MPEG-4 Visual
Format profile                   : Advanced Simple@L5
Format settings, BVOP            : Yes
Format settings, QPel            : Yes
Format settings, GMC             : No warppoints
Format settings, Matrix          : Default (H.263)
Muxing mode                      : Packed bitstream
Codec ID                         : XVID
Codec ID/Hint                    : XviD
Duration                         : 1h 18mn
Bit rate                         : 1 800 Kbps
Width                            : 720 pixels
Height                           : 400 pixels
Display aspect ratio             : 16:9
Frame rate                       : 25.000 fps
Color space                      : YUV
Chroma subsampling               : 4:2:0
Bit depth                        : 8 bits
Scan type                        : Progressive
Bits/(Pixel*Frame)               : 0.250
Stream size                      : 1 017 MiB (80%)
Writing library                  : XviD 1.2.1 (UTC 2008-12-04)

Audio
ID                               : 1
Format                           : AC-3
Format/Info                      : Audio Coding 3
Mode extension                   : CM (complete main)
Codec ID                         : 2000
Duration                         : 1h 18mn
Bit rate mode                    : Constant
Bit rate                         : 448 Kbps
Channel(s)                       : 6 channels
Channel positions                : Front: L C R, Side: L R, LFE
Sampling rate                    : 48.0 KHz
Bit depth                        : 16 bits
Stream size                      : 253 MiB (20%)
Alignment                        : Split accross interleaves
Interleave, duration             : 40 ms (1.00 video frame)
Interleave, preload duration     : 500 ms



Stephen Spinella	 ... 	Lieutenant Chad
Jack Plotnick	... 	Accountant
Wings Hauser	... 	Man in wheelchair
Roxane Mesquida	... 	Sheila
Ethan Cohn	... 	Film buff Ethan
Charley Koontz	... 	Film buff Charley
Daniel Quinn	... 	Dad
Devin Brochu	... 	Son


When Robert, an inanimate tire, discovers his destructive telepathic powers,
he soon sets his sights on a desert town; in particular,
a mysterious woman becomes his obsession. 



[img]http://img12.imageshack.us/img12/4903/62079784.png[/img]
[img]http://img863.imageshack.us/img863/2872/ruru.png[/img]
[img]http://img576.imageshack.us/img576/8379/rururu.png[/img]
[img]http://img138.imageshack.us/img138/7649/rurururu.png[/img]
[img]http://img694.imageshack.us/img694/4151/rururururu.png[/img]




Greetz

iNK,LUSi,,MAGNET,CLASSiFiED,THC,LEGi0N,T0XiC,IMAGiNE,ViSiON,WBZ,FLAWL3SS,NOVA
Vik,Rapeseed,D2U,SAFC,goldadvance,MEMORY100,KaN1vE,Unevano,Pinnz,Wayne,Mr Hive
and all P2P groups 
Great Work Guys :D

CM8@hushmail.com